<svg width="101" height="188" viewBox="0 0 101 188" fill="none" xmlns="http://www.w3.org/2000/svg">
<circle cx="1.5981" cy="1.5981" r="1.5981" fill="#B7B4B9"/>
<circle cx="12.4652" cy="1.5981" r="1.5981" fill="#B7B4B9"/>
<circle cx="12.4652" cy="1.5981" r="1.5981" fill="#B7B4B9"/>
<circle cx="12.4652" cy="1.5981" r="1.5981" fill="#B7B4B9"/>
<circle cx="12.4652" cy="1.5981" r="1.5981" fill="#B7B4B9"/>
<circle cx="12.4652" cy="1.5981" r="1.5981" fill="#B7B4B9"/>
<circle cx="12.4652" cy="1.5981" r="1.5981" fill="#B7B4B9"/>
<circle cx="12.4652" cy="1.5981" r="1.5981" fill="#B7B4B9"/>
<circle cx="12.4652" cy="1.5981" r="1.5981" fill="#B7B4B9"/>
<circle cx="12.4652" cy="1.5981" r="1.5981" fill="#B7B4B9"/>
<circle cx="12.4652" cy="1.5981" r="1.5981" fill="#B7B4B9"/>
<circle cx="12.4652" cy="1.5981" r="1.5981" fill="#B7B4B9"/>
<circle cx="12.4652" cy="1.5981" r="1.5981" fill="#B7B4B9"/>
<circle cx="12.4652" cy="1.5981" r="1.5981" fill="#B7B4B9"/>
<circle cx="12.4652" cy="1.5981" r="1.5981" fill="#B7B4B9"/>
<circle cx="12.4652" cy="1.5981" r="1.5981" fill="#B7B4B9"/>
<circle cx="1.5981" cy="12.4653" r="1.5981" fill="#B7B4B9"/>
<circle cx="12.4652" cy="12.4653" r="1.5981" fill="#B7B4B9"/>
<circle cx="12.4652" cy="12.4653" r="1.5981" fill="#B7B4B9"/>
<circle cx="12.4652" cy="12.4653" r="1.5981" fill="#B7B4B9"/>
<circle cx="12.4652" cy="12.4653" r="1.5981" fill="#B7B4B9"/>
<circle cx="12.4652" cy="12.4653" r="1.5981" fill="#B7B4B9"/>
<circle cx="12.4652" cy="12.4653" r="1.5981" fill="#B7B4B9"/>
<circle cx="12.4652" cy="12.4653" r="1.5981" fill="#B7B4B9"/>
<circle cx="12.4652" cy="12.4653" r="1.5981" fill="#B7B4B9"/>
<circle cx="12.4652" cy="12.4653" r="1.5981" fill="#B7B4B9"/>
<circle cx="12.4652" cy="12.4653" r="1.5981" fill="#B7B4B9"/>
<circle cx="12.4652" cy="12.4653" r="1.5981" fill="#B7B4B9"/>
<circle cx="12.4652" cy="12.4653" r="1.5981" fill="#B7B4B9"/>
<circle cx="12.4652" cy="12.4653" r="1.5981" fill="#B7B4B9"/>
<circle cx="12.4652" cy="12.4653" r="1.5981" fill="#B7B4B9"/>
<circle cx="12.4652" cy="12.4653" r="1.5981" fill="#B7B4B9"/>
<circle cx="1.5981" cy="23.3322" r="1.5981" fill="#B7B4B9"/>
<circle cx="12.4652" cy="23.3322" r="1.5981" fill="#B7B4B9"/>
<circle cx="12.4652" cy="23.3322" r="1.5981" fill="#B7B4B9"/>
<circle cx="12.4652" cy="23.3322" r="1.5981" fill="#B7B4B9"/>
<circle cx="12.4652" cy="23.3322" r="1.5981" fill="#B7B4B9"/>
<circle cx="12.4652" cy="23.3322" r="1.5981" fill="#B7B4B9"/>
<circle cx="12.4652" cy="23.3322" r="1.5981" fill="#B7B4B9"/>
<circle cx="12.4652" cy="23.3322" r="1.5981" fill="#B7B4B9"/>
<circle cx="12.4652" cy="23.3322" r="1.5981" fill="#B7B4B9"/>
<circle cx="12.4652" cy="23.3322" r="1.5981" fill="#B7B4B9"/>
<circle cx="12.4652" cy="23.3322" r="1.5981" fill="#B7B4B9"/>
<circle cx="12.4652" cy="23.3322" r="1.5981" fill="#B7B4B9"/>
<circle cx="12.4652" cy="23.3322" r="1.5981" fill="#B7B4B9"/>
<circle cx="12.4652" cy="23.3322" r="1.5981" fill="#B7B4B9"/>
<circle cx="12.4652" cy="23.3322" r="1.5981" fill="#B7B4B9"/>
<circle cx="12.4652" cy="23.3322" r="1.5981" fill="#B7B4B9"/>
<circle cx="1.5981" cy="34.1994" r="1.5981" fill="#B7B4B9"/>
<circle cx="12.4652" cy="34.1994" r="1.5981" fill="#B7B4B9"/>
<circle cx="12.4652" cy="34.1994" r="1.5981" fill="#B7B4B9"/>
<circle cx="12.4652" cy="34.1994" r="1.5981" fill="#B7B4B9"/>
<circle cx="12.4652" cy="34.1994" r="1.5981" fill="#B7B4B9"/>
<circle cx="12.4652" cy="34.1994" r="1.5981" fill="#B7B4B9"/>
<circle cx="12.4652" cy="34.1994" r="1.5981" fill="#B7B4B9"/>
<circle cx="12.4652" cy="34.1994" r="1.5981" fill="#B7B4B9"/>
<circle cx="12.4652" cy="34.1994" r="1.5981" fill="#B7B4B9"/>
<circle cx="12.4652" cy="34.1994" r="1.5981" fill="#B7B4B9"/>
<circle cx="12.4652" cy="34.1994" r="1.5981" fill="#B7B4B9"/>
<circle cx="12.4652" cy="34.1994" r="1.5981" fill="#B7B4B9"/>
<circle cx="12.4652" cy="34.1994" r="1.5981" fill="#B7B4B9"/>
<circle cx="12.4652" cy="34.1994" r="1.5981" fill="#B7B4B9"/>
<circle cx="12.4652" cy="34.1994" r="1.5981" fill="#B7B4B9"/>
<circle cx="12.4652" cy="34.1994" r="1.5981" fill="#B7B4B9"/>
<circle cx="1.5981" cy="45.0664" r="1.5981" fill="#B7B4B9"/>
<circle cx="12.4652" cy="45.0664" r="1.5981" fill="#B7B4B9"/>
<circle cx="12.4652" cy="45.0664" r="1.5981" fill="#B7B4B9"/>
<circle cx="12.4652" cy="45.0664" r="1.5981" fill="#B7B4B9"/>
<circle cx="12.4652" cy="45.0664" r="1.5981" fill="#B7B4B9"/>
<circle cx="12.4652" cy="45.0664" r="1.5981" fill="#B7B4B9"/>
<circle cx="12.4652" cy="45.0664" r="1.5981" fill="#B7B4B9"/>
<circle cx="12.4652" cy="45.0664" r="1.5981" fill="#B7B4B9"/>
<circle cx="12.4652" cy="45.0664" r="1.5981" fill="#B7B4B9"/>
<circle cx="12.4652" cy="45.0664" r="1.5981" fill="#B7B4B9"/>
<circle cx="12.4652" cy="45.0664" r="1.5981" fill="#B7B4B9"/>
<circle cx="12.4652" cy="45.0664" r="1.5981" fill="#B7B4B9"/>
<circle cx="12.4652" cy="45.0664" r="1.5981" fill="#B7B4B9"/>
<circle cx="12.4652" cy="45.0664" r="1.5981" fill="#B7B4B9"/>
<circle cx="12.4652" cy="45.0664" r="1.5981" fill="#B7B4B9"/>
<circle cx="12.4652" cy="45.0664" r="1.5981" fill="#B7B4B9"/>
<circle cx="1.5981" cy="55.9336" r="1.5981" fill="#B7B4B9"/>
<circle cx="12.4652" cy="55.9336" r="1.5981" fill="#B7B4B9"/>
<circle cx="12.4652" cy="55.9336" r="1.5981" fill="#B7B4B9"/>
<circle cx="12.4652" cy="55.9336" r="1.5981" fill="#B7B4B9"/>
<circle cx="12.4652" cy="55.9336" r="1.5981" fill="#B7B4B9"/>
<circle cx="12.4652" cy="55.9336" r="1.5981" fill="#B7B4B9"/>
<circle cx="12.4652" cy="55.9336" r="1.5981" fill="#B7B4B9"/>
<circle cx="12.4652" cy="55.9336" r="1.5981" fill="#B7B4B9"/>
<circle cx="12.4652" cy="55.9336" r="1.5981" fill="#B7B4B9"/>
<circle cx="12.4652" cy="55.9336" r="1.5981" fill="#B7B4B9"/>
<circle cx="12.4652" cy="55.9336" r="1.5981" fill="#B7B4B9"/>
<circle cx="12.4652" cy="55.9336" r="1.5981" fill="#B7B4B9"/>
<circle cx="12.4652" cy="55.9336" r="1.5981" fill="#B7B4B9"/>
<circle cx="12.4652" cy="55.9336" r="1.5981" fill="#B7B4B9"/>
<circle cx="12.4652" cy="55.9336" r="1.5981" fill="#B7B4B9"/>
<circle cx="12.4652" cy="55.9336" r="1.5981" fill="#B7B4B9"/>
<circle cx="1.5981" cy="66.8007" r="1.5981" fill="#B7B4B9"/>
<circle cx="12.4652" cy="66.8007" r="1.5981" fill="#B7B4B9"/>
<circle cx="12.4652" cy="66.8007" r="1.5981" fill="#B7B4B9"/>
<circle cx="12.4652" cy="66.8007" r="1.5981" fill="#B7B4B9"/>
<circle cx="12.4652" cy="66.8007" r="1.5981" fill="#B7B4B9"/>
<circle cx="12.4652" cy="66.8007" r="1.5981" fill="#B7B4B9"/>
<circle cx="12.4652" cy="66.8007" r="1.5981" fill="#B7B4B9"/>
<circle cx="12.4652" cy="66.8007" r="1.5981" fill="#B7B4B9"/>
<circle cx="12.4652" cy="66.8007" r="1.5981" fill="#B7B4B9"/>
<circle cx="12.4652" cy="66.8007" r="1.5981" fill="#B7B4B9"/>
<circle cx="12.4652" cy="66.8007" r="1.5981" fill="#B7B4B9"/>
<circle cx="12.4652" cy="66.8007" r="1.5981" fill="#B7B4B9"/>
<circle cx="12.4652" cy="66.8007" r="1.5981" fill="#B7B4B9"/>
<circle cx="12.4652" cy="66.8007" r="1.5981" fill="#B7B4B9"/>
<circle cx="12.4652" cy="66.8007" r="1.5981" fill="#B7B4B9"/>
<circle cx="12.4652" cy="66.8007" r="1.5981" fill="#B7B4B9"/>
<circle cx="1.5981" cy="77.6677" r="1.5981" fill="#B7B4B9"/>
<circle cx="12.4652" cy="77.6677" r="1.5981" fill="#B7B4B9"/>
<circle cx="12.4652" cy="77.6677" r="1.5981" fill="#B7B4B9"/>
<circle cx="12.4652" cy="77.6677" r="1.5981" fill="#B7B4B9"/>
<circle cx="12.4652" cy="77.6677" r="1.5981" fill="#B7B4B9"/>
<circle cx="12.4652" cy="77.6677" r="1.5981" fill="#B7B4B9"/>
<circle cx="12.4652" cy="77.6677" r="1.5981" fill="#B7B4B9"/>
<circle cx="12.4652" cy="77.6677" r="1.5981" fill="#B7B4B9"/>
<circle cx="12.4652" cy="77.6677" r="1.5981" fill="#B7B4B9"/>
<circle cx="12.4652" cy="77.6677" r="1.5981" fill="#B7B4B9"/>
<circle cx="12.4652" cy="77.6677" r="1.5981" fill="#B7B4B9"/>
<circle cx="12.4652" cy="77.6677" r="1.5981" fill="#B7B4B9"/>
<circle cx="12.4652" cy="77.6677" r="1.5981" fill="#B7B4B9"/>
<circle cx="12.4652" cy="77.6677" r="1.5981" fill="#B7B4B9"/>
<circle cx="12.4652" cy="77.6677" r="1.5981" fill="#B7B4B9"/>
<circle cx="12.4652" cy="77.6677" r="1.5981" fill="#B7B4B9"/>
<circle cx="1.5981" cy="88.5639" r="1.5981" fill="#B7B4B9"/>
<circle cx="12.4652" cy="88.5639" r="1.5981" fill="#B7B4B9"/>
<circle cx="12.4652" cy="88.5639" r="1.5981" fill="#B7B4B9"/>
<circle cx="12.4652" cy="88.5639" r="1.5981" fill="#B7B4B9"/>
<circle cx="12.4652" cy="88.5639" r="1.5981" fill="#B7B4B9"/>
<circle cx="12.4652" cy="88.5639" r="1.5981" fill="#B7B4B9"/>
<circle cx="12.4652" cy="88.5639" r="1.5981" fill="#B7B4B9"/>
<circle cx="12.4652" cy="88.5639" r="1.5981" fill="#B7B4B9"/>
<circle cx="12.4652" cy="88.5639" r="1.5981" fill="#B7B4B9"/>
<circle cx="12.4652" cy="88.5639" r="1.5981" fill="#B7B4B9"/>
<circle cx="12.4652" cy="88.5639" r="1.5981" fill="#B7B4B9"/>
<circle cx="12.4652" cy="88.5639" r="1.5981" fill="#B7B4B9"/>
<circle cx="12.4652" cy="88.5639" r="1.5981" fill="#B7B4B9"/>
<circle cx="12.4652" cy="88.5639" r="1.5981" fill="#B7B4B9"/>
<circle cx="12.4652" cy="88.5639" r="1.5981" fill="#B7B4B9"/>
<circle cx="12.4652" cy="88.5639" r="1.5981" fill="#B7B4B9"/>
<circle cx="1.5981" cy="99.431" r="1.5981" fill="#B7B4B9"/>
<circle cx="12.4652" cy="99.431" r="1.5981" fill="#B7B4B9"/>
<circle cx="12.4652" cy="99.431" r="1.5981" fill="#B7B4B9"/>
<circle cx="12.4652" cy="99.431" r="1.5981" fill="#B7B4B9"/>
<circle cx="12.4652" cy="99.431" r="1.5981" fill="#B7B4B9"/>
<circle cx="12.4652" cy="99.431" r="1.5981" fill="#B7B4B9"/>
<circle cx="12.4652" cy="99.431" r="1.5981" fill="#B7B4B9"/>
<circle cx="12.4652" cy="99.431" r="1.5981" fill="#B7B4B9"/>
<circle cx="12.4652" cy="99.431" r="1.5981" fill="#B7B4B9"/>
<circle cx="12.4652" cy="99.431" r="1.5981" fill="#B7B4B9"/>
<circle cx="12.4652" cy="99.431" r="1.5981" fill="#B7B4B9"/>
<circle cx="12.4652" cy="99.431" r="1.5981" fill="#B7B4B9"/>
<circle cx="12.4652" cy="99.431" r="1.5981" fill="#B7B4B9"/>
<circle cx="12.4652" cy="99.431" r="1.5981" fill="#B7B4B9"/>
<circle cx="12.4652" cy="99.431" r="1.5981" fill="#B7B4B9"/>
<circle cx="12.4652" cy="99.431" r="1.5981" fill="#B7B4B9"/>
<circle cx="1.5981" cy="110.298" r="1.5981" fill="#B7B4B9"/>
<circle cx="12.4652" cy="110.298" r="1.5981" fill="#B7B4B9"/>
<circle cx="12.4652" cy="110.298" r="1.5981" fill="#B7B4B9"/>
<circle cx="12.4652" cy="110.298" r="1.5981" fill="#B7B4B9"/>
<circle cx="12.4652" cy="110.298" r="1.5981" fill="#B7B4B9"/>
<circle cx="12.4652" cy="110.298" r="1.5981" fill="#B7B4B9"/>
<circle cx="12.4652" cy="110.298" r="1.5981" fill="#B7B4B9"/>
<circle cx="12.4652" cy="110.298" r="1.5981" fill="#B7B4B9"/>
<circle cx="12.4652" cy="110.298" r="1.5981" fill="#B7B4B9"/>
<circle cx="12.4652" cy="110.298" r="1.5981" fill="#B7B4B9"/>
<circle cx="12.4652" cy="110.298" r="1.5981" fill="#B7B4B9"/>
<circle cx="12.4652" cy="110.298" r="1.5981" fill="#B7B4B9"/>
<circle cx="12.4652" cy="110.298" r="1.5981" fill="#B7B4B9"/>
<circle cx="12.4652" cy="110.298" r="1.5981" fill="#B7B4B9"/>
<circle cx="12.4652" cy="110.298" r="1.5981" fill="#B7B4B9"/>
<circle cx="12.4652" cy="110.298" r="1.5981" fill="#B7B4B9"/>
<circle cx="1.5981" cy="121.165" r="1.5981" fill="#B7B4B9"/>
<circle cx="12.4652" cy="121.165" r="1.5981" fill="#B7B4B9"/>
<circle cx="12.4652" cy="121.165" r="1.5981" fill="#B7B4B9"/>
<circle cx="12.4652" cy="121.165" r="1.5981" fill="#B7B4B9"/>
<circle cx="12.4652" cy="121.165" r="1.5981" fill="#B7B4B9"/>
<circle cx="12.4652" cy="121.165" r="1.5981" fill="#B7B4B9"/>
<circle cx="12.4652" cy="121.165" r="1.5981" fill="#B7B4B9"/>
<circle cx="12.4652" cy="121.165" r="1.5981" fill="#B7B4B9"/>
<circle cx="12.4652" cy="121.165" r="1.5981" fill="#B7B4B9"/>
<circle cx="12.4652" cy="121.165" r="1.5981" fill="#B7B4B9"/>
<circle cx="12.4652" cy="121.165" r="1.5981" fill="#B7B4B9"/>
<circle cx="12.4652" cy="121.165" r="1.5981" fill="#B7B4B9"/>
<circle cx="12.4652" cy="121.165" r="1.5981" fill="#B7B4B9"/>
<circle cx="12.4652" cy="121.165" r="1.5981" fill="#B7B4B9"/>
<circle cx="12.4652" cy="121.165" r="1.5981" fill="#B7B4B9"/>
<circle cx="12.4652" cy="121.165" r="1.5981" fill="#B7B4B9"/>
<circle cx="1.5981" cy="132.032" r="1.5981" fill="#B7B4B9"/>
<circle cx="12.4652" cy="132.032" r="1.5981" fill="#B7B4B9"/>
<circle cx="12.4652" cy="132.032" r="1.5981" fill="#B7B4B9"/>
<circle cx="12.4652" cy="132.032" r="1.5981" fill="#B7B4B9"/>
<circle cx="12.4652" cy="132.032" r="1.5981" fill="#B7B4B9"/>
<circle cx="12.4652" cy="132.032" r="1.5981" fill="#B7B4B9"/>
<circle cx="12.4652" cy="132.032" r="1.5981" fill="#B7B4B9"/>
<circle cx="12.4652" cy="132.032" r="1.5981" fill="#B7B4B9"/>
<circle cx="12.4652" cy="132.032" r="1.5981" fill="#B7B4B9"/>
<circle cx="12.4652" cy="132.032" r="1.5981" fill="#B7B4B9"/>
<circle cx="12.4652" cy="132.032" r="1.5981" fill="#B7B4B9"/>
<circle cx="12.4652" cy="132.032" r="1.5981" fill="#B7B4B9"/>
<circle cx="12.4652" cy="132.032" r="1.5981" fill="#B7B4B9"/>
<circle cx="12.4652" cy="132.032" r="1.5981" fill="#B7B4B9"/>
<circle cx="12.4652" cy="132.032" r="1.5981" fill="#B7B4B9"/>
<circle cx="12.4652" cy="132.032" r="1.5981" fill="#B7B4B9"/>
<circle cx="1.5981" cy="142.899" r="1.5981" fill="#B7B4B9"/>
<circle cx="12.4652" cy="142.899" r="1.5981" fill="#B7B4B9"/>
<circle cx="12.4652" cy="142.899" r="1.5981" fill="#B7B4B9"/>
<circle cx="12.4652" cy="142.899" r="1.5981" fill="#B7B4B9"/>
<circle cx="12.4652" cy="142.899" r="1.5981" fill="#B7B4B9"/>
<circle cx="12.4652" cy="142.899" r="1.5981" fill="#B7B4B9"/>
<circle cx="12.4652" cy="142.899" r="1.5981" fill="#B7B4B9"/>
<circle cx="12.4652" cy="142.899" r="1.5981" fill="#B7B4B9"/>
<circle cx="12.4652" cy="142.899" r="1.5981" fill="#B7B4B9"/>
<circle cx="12.4652" cy="142.899" r="1.5981" fill="#B7B4B9"/>
<circle cx="12.4652" cy="142.899" r="1.5981" fill="#B7B4B9"/>
<circle cx="12.4652" cy="142.899" r="1.5981" fill="#B7B4B9"/>
<circle cx="12.4652" cy="142.899" r="1.5981" fill="#B7B4B9"/>
<circle cx="12.4652" cy="142.899" r="1.5981" fill="#B7B4B9"/>
<circle cx="12.4652" cy="142.899" r="1.5981" fill="#B7B4B9"/>
<circle cx="12.4652" cy="142.899" r="1.5981" fill="#B7B4B9"/>
<circle cx="1.5981" cy="153.766" r="1.5981" fill="#B7B4B9"/>
<circle cx="12.4652" cy="153.766" r="1.5981" fill="#B7B4B9"/>
<circle cx="12.4652" cy="153.766" r="1.5981" fill="#B7B4B9"/>
<circle cx="12.4652" cy="153.766" r="1.5981" fill="#B7B4B9"/>
<circle cx="12.4652" cy="153.766" r="1.5981" fill="#B7B4B9"/>
<circle cx="12.4652" cy="153.766" r="1.5981" fill="#B7B4B9"/>
<circle cx="12.4652" cy="153.766" r="1.5981" fill="#B7B4B9"/>
<circle cx="12.4652" cy="153.766" r="1.5981" fill="#B7B4B9"/>
<circle cx="12.4652" cy="153.766" r="1.5981" fill="#B7B4B9"/>
<circle cx="12.4652" cy="153.766" r="1.5981" fill="#B7B4B9"/>
<circle cx="12.4652" cy="153.766" r="1.5981" fill="#B7B4B9"/>
<circle cx="12.4652" cy="153.766" r="1.5981" fill="#B7B4B9"/>
<circle cx="12.4652" cy="153.766" r="1.5981" fill="#B7B4B9"/>
<circle cx="12.4652" cy="153.766" r="1.5981" fill="#B7B4B9"/>
<circle cx="12.4652" cy="153.766" r="1.5981" fill="#B7B4B9"/>
<circle cx="12.4652" cy="153.766" r="1.5981" fill="#B7B4B9"/>
<circle cx="1.5981" cy="164.633" r="1.5981" fill="#B7B4B9"/>
<circle cx="12.4652" cy="164.633" r="1.5981" fill="#B7B4B9"/>
<circle cx="12.4652" cy="164.633" r="1.5981" fill="#B7B4B9"/>
<circle cx="12.4652" cy="164.633" r="1.5981" fill="#B7B4B9"/>
<circle cx="12.4652" cy="164.633" r="1.5981" fill="#B7B4B9"/>
<circle cx="12.4652" cy="164.633" r="1.5981" fill="#B7B4B9"/>
<circle cx="12.4652" cy="164.633" r="1.5981" fill="#B7B4B9"/>
<circle cx="12.4652" cy="164.633" r="1.5981" fill="#B7B4B9"/>
<circle cx="12.4652" cy="164.633" r="1.5981" fill="#B7B4B9"/>
<circle cx="12.4652" cy="164.633" r="1.5981" fill="#B7B4B9"/>
<circle cx="12.4652" cy="164.633" r="1.5981" fill="#B7B4B9"/>
<circle cx="12.4652" cy="164.633" r="1.5981" fill="#B7B4B9"/>
<circle cx="12.4652" cy="164.633" r="1.5981" fill="#B7B4B9"/>
<circle cx="12.4652" cy="164.633" r="1.5981" fill="#B7B4B9"/>
<circle cx="12.4652" cy="164.633" r="1.5981" fill="#B7B4B9"/>
<circle cx="12.4652" cy="164.633" r="1.5981" fill="#B7B4B9"/>
<circle cx="1.5981" cy="175.501" r="1.5981" fill="#B7B4B9"/>
<circle cx="12.4652" cy="175.501" r="1.5981" fill="#B7B4B9"/>
<circle cx="12.4652" cy="175.501" r="1.5981" fill="#B7B4B9"/>
<circle cx="12.4652" cy="175.501" r="1.5981" fill="#B7B4B9"/>
<circle cx="12.4652" cy="175.501" r="1.5981" fill="#B7B4B9"/>
<circle cx="12.4652" cy="175.501" r="1.5981" fill="#B7B4B9"/>
<circle cx="12.4652" cy="175.501" r="1.5981" fill="#B7B4B9"/>
<circle cx="12.4652" cy="175.501" r="1.5981" fill="#B7B4B9"/>
<circle cx="12.4652" cy="175.501" r="1.5981" fill="#B7B4B9"/>
<circle cx="12.4652" cy="175.501" r="1.5981" fill="#B7B4B9"/>
<circle cx="12.4652" cy="175.501" r="1.5981" fill="#B7B4B9"/>
<circle cx="12.4652" cy="175.501" r="1.5981" fill="#B7B4B9"/>
<circle cx="12.4652" cy="175.501" r="1.5981" fill="#B7B4B9"/>
<circle cx="12.4652" cy="175.501" r="1.5981" fill="#B7B4B9"/>
<circle cx="12.4652" cy="175.501" r="1.5981" fill="#B7B4B9"/>
<circle cx="12.4652" cy="175.501" r="1.5981" fill="#B7B4B9"/>
<circle cx="23.3322" cy="175.501" r="1.5981" fill="#B7B4B9"/>
<circle cx="34.1994" cy="175.501" r="1.5981" fill="#B7B4B9"/>
<circle cx="34.1994" cy="175.501" r="1.5981" fill="#B7B4B9"/>
<circle cx="34.1994" cy="175.501" r="1.5981" fill="#B7B4B9"/>
<circle cx="34.1994" cy="175.501" r="1.5981" fill="#B7B4B9"/>
<circle cx="34.1994" cy="175.501" r="1.5981" fill="#B7B4B9"/>
<circle cx="34.1994" cy="175.501" r="1.5981" fill="#B7B4B9"/>
<circle cx="34.1994" cy="175.501" r="1.5981" fill="#B7B4B9"/>
<circle cx="34.1994" cy="175.501" r="1.5981" fill="#B7B4B9"/>
<circle cx="34.1994" cy="175.501" r="1.5981" fill="#B7B4B9"/>
<circle cx="34.1994" cy="175.501" r="1.5981" fill="#B7B4B9"/>
<circle cx="34.1994" cy="175.501" r="1.5981" fill="#B7B4B9"/>
<circle cx="34.1994" cy="175.501" r="1.5981" fill="#B7B4B9"/>
<circle cx="34.1994" cy="175.501" r="1.5981" fill="#B7B4B9"/>
<circle cx="34.1994" cy="175.501" r="1.5981" fill="#B7B4B9"/>
<circle cx="34.1994" cy="175.501" r="1.5981" fill="#B7B4B9"/>
<circle cx="45.0665" cy="175.501" r="1.5981" fill="#B7B4B9"/>
<circle cx="55.9336" cy="175.501" r="1.5981" fill="#B7B4B9"/>
<circle cx="55.9336" cy="175.501" r="1.5981" fill="#B7B4B9"/>
<circle cx="55.9336" cy="175.501" r="1.5981" fill="#B7B4B9"/>
<circle cx="55.9336" cy="175.501" r="1.5981" fill="#B7B4B9"/>
<circle cx="55.9336" cy="175.501" r="1.5981" fill="#B7B4B9"/>
<circle cx="55.9336" cy="175.501" r="1.5981" fill="#B7B4B9"/>
<circle cx="55.9336" cy="175.501" r="1.5981" fill="#B7B4B9"/>
<circle cx="55.9336" cy="175.501" r="1.5981" fill="#B7B4B9"/>
<circle cx="55.9336" cy="175.501" r="1.5981" fill="#B7B4B9"/>
<circle cx="55.9336" cy="175.501" r="1.5981" fill="#B7B4B9"/>
<circle cx="55.9336" cy="175.501" r="1.5981" fill="#B7B4B9"/>
<circle cx="55.9336" cy="175.501" r="1.5981" fill="#B7B4B9"/>
<circle cx="55.9336" cy="175.501" r="1.5981" fill="#B7B4B9"/>
<circle cx="55.9336" cy="175.501" r="1.5981" fill="#B7B4B9"/>
<circle cx="55.9336" cy="175.501" r="1.5981" fill="#B7B4B9"/>
<circle cx="66.8006" cy="175.501" r="1.5981" fill="#B7B4B9"/>
<circle cx="77.6677" cy="175.501" r="1.5981" fill="#B7B4B9"/>
<circle cx="77.6677" cy="175.501" r="1.5981" fill="#B7B4B9"/>
<circle cx="77.6677" cy="175.501" r="1.5981" fill="#B7B4B9"/>
<circle cx="77.6677" cy="175.501" r="1.5981" fill="#B7B4B9"/>
<circle cx="77.6677" cy="175.501" r="1.5981" fill="#B7B4B9"/>
<circle cx="77.6677" cy="175.501" r="1.5981" fill="#B7B4B9"/>
<circle cx="77.6677" cy="175.501" r="1.5981" fill="#B7B4B9"/>
<circle cx="77.6677" cy="175.501" r="1.5981" fill="#B7B4B9"/>
<circle cx="77.6677" cy="175.501" r="1.5981" fill="#B7B4B9"/>
<circle cx="77.6677" cy="175.501" r="1.5981" fill="#B7B4B9"/>
<circle cx="77.6677" cy="175.501" r="1.5981" fill="#B7B4B9"/>
<circle cx="77.6677" cy="175.501" r="1.5981" fill="#B7B4B9"/>
<circle cx="77.6677" cy="175.501" r="1.5981" fill="#B7B4B9"/>
<circle cx="77.6677" cy="175.501" r="1.5981" fill="#B7B4B9"/>
<circle cx="77.6677" cy="175.501" r="1.5981" fill="#B7B4B9"/>
<circle cx="88.5349" cy="175.501" r="1.5981" fill="#B7B4B9"/>
<circle cx="99.4019" cy="175.501" r="1.5981" fill="#B7B4B9"/>
<circle cx="99.4019" cy="175.501" r="1.5981" fill="#B7B4B9"/>
<circle cx="99.4019" cy="175.501" r="1.5981" fill="#B7B4B9"/>
<circle cx="99.4019" cy="175.501" r="1.5981" fill="#B7B4B9"/>
<circle cx="99.4019" cy="175.501" r="1.5981" fill="#B7B4B9"/>
<circle cx="99.4019" cy="175.501" r="1.5981" fill="#B7B4B9"/>
<circle cx="99.4019" cy="175.501" r="1.5981" fill="#B7B4B9"/>
<circle cx="99.4019" cy="175.501" r="1.5981" fill="#B7B4B9"/>
<circle cx="99.4019" cy="175.501" r="1.5981" fill="#B7B4B9"/>
<circle cx="99.4019" cy="175.501" r="1.5981" fill="#B7B4B9"/>
<circle cx="99.4019" cy="175.501" r="1.5981" fill="#B7B4B9"/>
<circle cx="99.4019" cy="175.501" r="1.5981" fill="#B7B4B9"/>
<circle cx="99.4019" cy="175.501" r="1.5981" fill="#B7B4B9"/>
<circle cx="99.4019" cy="175.501" r="1.5981" fill="#B7B4B9"/>
<circle cx="99.4019" cy="175.501" r="1.5981" fill="#B7B4B9"/>
<circle cx="1.5981" cy="186.368" r="1.5981" fill="#B7B4B9"/>
<circle cx="12.4652" cy="186.368" r="1.5981" fill="#B7B4B9"/>
<circle cx="12.4652" cy="186.368" r="1.5981" fill="#B7B4B9"/>
<circle cx="12.4652" cy="186.368" r="1.5981" fill="#B7B4B9"/>
<circle cx="12.4652" cy="186.368" r="1.5981" fill="#B7B4B9"/>
<circle cx="12.4652" cy="186.368" r="1.5981" fill="#B7B4B9"/>
<circle cx="12.4652" cy="186.368" r="1.5981" fill="#B7B4B9"/>
<circle cx="12.4652" cy="186.368" r="1.5981" fill="#B7B4B9"/>
<circle cx="12.4652" cy="186.368" r="1.5981" fill="#B7B4B9"/>
<circle cx="12.4652" cy="186.368" r="1.5981" fill="#B7B4B9"/>
<circle cx="12.4652" cy="186.368" r="1.5981" fill="#B7B4B9"/>
<circle cx="12.4652" cy="186.368" r="1.5981" fill="#B7B4B9"/>
<circle cx="12.4652" cy="186.368" r="1.5981" fill="#B7B4B9"/>
<circle cx="12.4652" cy="186.368" r="1.5981" fill="#B7B4B9"/>
<circle cx="12.4652" cy="186.368" r="1.5981" fill="#B7B4B9"/>
<circle cx="12.4652" cy="186.368" r="1.5981" fill="#B7B4B9"/>
<circle cx="23.3322" cy="186.368" r="1.5981" fill="#B7B4B9"/>
<circle cx="34.1994" cy="186.368" r="1.5981" fill="#B7B4B9"/>
<circle cx="34.1994" cy="186.368" r="1.5981" fill="#B7B4B9"/>
<circle cx="34.1994" cy="186.368" r="1.5981" fill="#B7B4B9"/>
<circle cx="34.1994" cy="186.368" r="1.5981" fill="#B7B4B9"/>
<circle cx="34.1994" cy="186.368" r="1.5981" fill="#B7B4B9"/>
<circle cx="34.1994" cy="186.368" r="1.5981" fill="#B7B4B9"/>
<circle cx="34.1994" cy="186.368" r="1.5981" fill="#B7B4B9"/>
<circle cx="34.1994" cy="186.368" r="1.5981" fill="#B7B4B9"/>
<circle cx="34.1994" cy="186.368" r="1.5981" fill="#B7B4B9"/>
<circle cx="34.1994" cy="186.368" r="1.5981" fill="#B7B4B9"/>
<circle cx="34.1994" cy="186.368" r="1.5981" fill="#B7B4B9"/>
<circle cx="34.1994" cy="186.368" r="1.5981" fill="#B7B4B9"/>
<circle cx="34.1994" cy="186.368" r="1.5981" fill="#B7B4B9"/>
<circle cx="34.1994" cy="186.368" r="1.5981" fill="#B7B4B9"/>
<circle cx="34.1994" cy="186.368" r="1.5981" fill="#B7B4B9"/>
<circle cx="45.0665" cy="186.368" r="1.5981" fill="#B7B4B9"/>
<circle cx="55.9336" cy="186.368" r="1.5981" fill="#B7B4B9"/>
<circle cx="55.9336" cy="186.368" r="1.5981" fill="#B7B4B9"/>
<circle cx="55.9336" cy="186.368" r="1.5981" fill="#B7B4B9"/>
<circle cx="55.9336" cy="186.368" r="1.5981" fill="#B7B4B9"/>
<circle cx="55.9336" cy="186.368" r="1.5981" fill="#B7B4B9"/>
<circle cx="55.9336" cy="186.368" r="1.5981" fill="#B7B4B9"/>
<circle cx="55.9336" cy="186.368" r="1.5981" fill="#B7B4B9"/>
<circle cx="55.9336" cy="186.368" r="1.5981" fill="#B7B4B9"/>
<circle cx="55.9336" cy="186.368" r="1.5981" fill="#B7B4B9"/>
<circle cx="55.9336" cy="186.368" r="1.5981" fill="#B7B4B9"/>
<circle cx="55.9336" cy="186.368" r="1.5981" fill="#B7B4B9"/>
<circle cx="55.9336" cy="186.368" r="1.5981" fill="#B7B4B9"/>
<circle cx="55.9336" cy="186.368" r="1.5981" fill="#B7B4B9"/>
<circle cx="55.9336" cy="186.368" r="1.5981" fill="#B7B4B9"/>
<circle cx="55.9336" cy="186.368" r="1.5981" fill="#B7B4B9"/>
<circle cx="66.8006" cy="186.368" r="1.5981" fill="#B7B4B9"/>
<circle cx="77.6677" cy="186.368" r="1.5981" fill="#B7B4B9"/>
<circle cx="77.6677" cy="186.368" r="1.5981" fill="#B7B4B9"/>
<circle cx="77.6677" cy="186.368" r="1.5981" fill="#B7B4B9"/>
<circle cx="77.6677" cy="186.368" r="1.5981" fill="#B7B4B9"/>
<circle cx="77.6677" cy="186.368" r="1.5981" fill="#B7B4B9"/>
<circle cx="77.6677" cy="186.368" r="1.5981" fill="#B7B4B9"/>
<circle cx="77.6677" cy="186.368" r="1.5981" fill="#B7B4B9"/>
<circle cx="77.6677" cy="186.368" r="1.5981" fill="#B7B4B9"/>
<circle cx="77.6677" cy="186.368" r="1.5981" fill="#B7B4B9"/>
<circle cx="77.6677" cy="186.368" r="1.5981" fill="#B7B4B9"/>
<circle cx="77.6677" cy="186.368" r="1.5981" fill="#B7B4B9"/>
<circle cx="77.6677" cy="186.368" r="1.5981" fill="#B7B4B9"/>
<circle cx="77.6677" cy="186.368" r="1.5981" fill="#B7B4B9"/>
<circle cx="77.6677" cy="186.368" r="1.5981" fill="#B7B4B9"/>
<circle cx="77.6677" cy="186.368" r="1.5981" fill="#B7B4B9"/>
<circle cx="88.5349" cy="186.368" r="1.5981" fill="#B7B4B9"/>
<circle cx="99.4019" cy="186.368" r="1.5981" fill="#B7B4B9"/>
<circle cx="99.4019" cy="186.368" r="1.5981" fill="#B7B4B9"/>
<circle cx="99.4019" cy="186.368" r="1.5981" fill="#B7B4B9"/>
<circle cx="99.4019" cy="186.368" r="1.5981" fill="#B7B4B9"/>
<circle cx="99.4019" cy="186.368" r="1.5981" fill="#B7B4B9"/>
<circle cx="99.4019" cy="186.368" r="1.5981" fill="#B7B4B9"/>
<circle cx="99.4019" cy="186.368" r="1.5981" fill="#B7B4B9"/>
<circle cx="99.4019" cy="186.368" r="1.5981" fill="#B7B4B9"/>
<circle cx="99.4019" cy="186.368" r="1.5981" fill="#B7B4B9"/>
<circle cx="99.4019" cy="186.368" r="1.5981" fill="#B7B4B9"/>
<circle cx="99.4019" cy="186.368" r="1.5981" fill="#B7B4B9"/>
<circle cx="99.4019" cy="186.368" r="1.5981" fill="#B7B4B9"/>
<circle cx="99.4019" cy="186.368" r="1.5981" fill="#B7B4B9"/>
<circle cx="99.4019" cy="186.368" r="1.5981" fill="#B7B4B9"/>
<circle cx="99.4019" cy="186.368" r="1.5981" fill="#B7B4B9"/>
</svg>
